<?xml version="1.0" encoding="utf-8"?>
<!-- Generator: Adobe Illustrator 24.2.1, SVG Export Plug-In . SVG Version: 6.00 Build 0)  -->
<svg version="1.1" id="Layer_1" xmlns="http://www.w3.org/2000/svg" xmlns:xlink="http://www.w3.org/1999/xlink" x="0px" y="0px"
	 viewBox="0 0 480 200" style="enable-background:new 0 0 480 200;" xml:space="preserve">
<style type="text/css">
	.st0{fill:#ECA72A;}
	.st1{fill:#ECA728;}
</style>
<path class="st0" d="M184.55,97.23h-11.09V86.14c0-3.33-2.22-5.54-5.54-5.54h-11.09V69.5c0-3.33-2.22-5.54-5.54-5.54h-11.09V52.87
	h11.09c3.33,0,5.54-2.22,5.54-5.54V30.69c0-3.33-2.22-5.54-5.54-5.54h-16.63c-3.33,0-5.54,2.22-5.54,5.54v11.09h-11.09
	c-3.33,0-5.54,2.22-5.54,5.54v16.63H90.29V47.32c0-3.33-2.22-5.54-5.54-5.54H73.65V30.69c0-3.33-2.22-5.54-5.54-5.54H51.48
	c-3.33,0-5.54,2.22-5.54,5.54v16.63c0,3.33,2.22,5.54,5.54,5.54h11.09v11.09H51.48c-3.33,0-5.54,2.22-5.54,5.54v11.09H34.84
	c-3.33,0-5.54,2.22-5.54,5.54v11.09H18.21c-3.33,0-5.54,2.22-5.54,5.54v49.9c0,3.33,2.22,5.54,5.54,5.54h16.63
	c3.33,0,5.54-2.22,5.54-5.54v-27.72h5.54v27.72c0,3.33,2.22,5.54,5.54,5.54h11.09v11.09c0,3.33,2.22,5.54,5.54,5.54h22.18
	c3.33,0,5.54-2.22,5.54-5.54v-16.63c0-3.33-2.22-5.54-5.54-5.54H73.65v-5.54h55.45v5.54h-16.63c-3.33,0-5.54,2.22-5.54,5.54v16.63
	c0,3.33,2.22,5.54,5.54,5.54h22.18c3.33,0,5.54-2.22,5.54-5.54v-11.09h11.09c3.33,0,5.54-2.22,5.54-5.54v-27.72h5.54v27.72
	c0,3.33,2.22,5.54,5.54,5.54h16.63c3.33,0,5.54-2.22,5.54-5.54v-49.9C190.1,99.45,187.88,97.23,184.55,97.23z M90.29,113.86
	c0,3.33-2.22,5.54-5.54,5.54H68.11c-3.33,0-5.54-2.22-5.54-5.54V97.23c0-3.33,2.22-5.54,5.54-5.54h16.63c3.33,0,5.54,2.22,5.54,5.54
	V113.86z M140.19,113.86c0,3.33-2.22,5.54-5.54,5.54h-16.63c-3.33,0-5.54-2.22-5.54-5.54V97.23c0-3.33,2.22-5.54,5.54-5.54h16.63
	c3.33,0,5.54,2.22,5.54,5.54V113.86z"/>
<g>
	<path class="st1" d="M243.57,139.68h-4.32l-0.99,3.35h-1.65l4.12-12.8h1.38l4.13,12.8h-1.65L243.57,139.68z M239.67,138.3h3.49
		l-1.75-5.82L239.67,138.3z"/>
	<path class="st1" d="M251.39,141.65h5.02v1.38h-6.64v-12.8h1.62V141.65z"/>
	<path class="st1" d="M261.73,138.02v5.01h-1.61v-12.8h4.08c1.19,0,2.12,0.36,2.8,1.07c0.68,0.71,1.02,1.66,1.02,2.84
		c0,1.23-0.32,2.18-0.97,2.84c-0.65,0.67-1.56,1.01-2.74,1.03H261.73z M261.73,136.64h2.47c0.71,0,1.26-0.21,1.64-0.64
		s0.57-1.04,0.57-1.84c0-0.77-0.2-1.38-0.59-1.85c-0.39-0.46-0.93-0.7-1.62-0.7h-2.48V136.64z"/>
	<path class="st1" d="M280.28,143.03h-1.62v-5.92h-5.15v5.92h-1.61v-12.8h1.61v5.5h5.15v-5.5h1.62V143.03z"/>
	<path class="st1" d="M290.99,139.68h-4.32l-0.99,3.35h-1.65l4.12-12.8h1.38l4.13,12.8H292L290.99,139.68z M287.08,138.3h3.49
		l-1.75-5.82L287.08,138.3z"/>
	<path class="st1" d="M302.95,136.25c0-0.51,0.16-0.93,0.49-1.26c0.32-0.33,0.76-0.49,1.3-0.49c0.53,0,0.97,0.16,1.3,0.48
		s0.5,0.75,0.5,1.3v0.33c0,0.51-0.16,0.93-0.48,1.25s-0.76,0.48-1.31,0.48c-0.54,0-0.98-0.16-1.3-0.49
		c-0.33-0.33-0.49-0.75-0.49-1.26V136.25z"/>
	<path class="st1" d="M316.9,143.03v-12.8h3.65c1.17,0,2.04,0.28,2.63,0.85c0.59,0.57,0.88,1.42,0.88,2.56
		c0,0.6-0.15,1.12-0.45,1.58s-0.7,0.81-1.21,1.06c0.59,0.18,1.05,0.54,1.39,1.08c0.34,0.54,0.51,1.2,0.51,1.97
		c0,1.15-0.32,2.05-0.95,2.71s-1.53,0.98-2.69,0.98H316.9z M318.51,135.69h2.07c0.56,0,1.01-0.19,1.35-0.56
		c0.34-0.38,0.51-0.88,0.51-1.5c0-0.7-0.16-1.22-0.47-1.54c-0.31-0.32-0.79-0.48-1.42-0.48h-2.04V135.69z M318.51,137.05v4.61h2.2
		c0.61,0,1.09-0.2,1.45-0.6c0.36-0.4,0.54-0.96,0.54-1.69c0-1.54-0.65-2.31-1.95-2.31H318.51z"/>
	<path class="st1" d="M334.65,137.12h-4.53v4.54h5.27v1.38h-6.88v-12.8h6.79v1.38h-5.19v4.12h4.53V137.12z"/>
	<path class="st1" d="M346.91,131.62h-3.37v11.42h-1.61v-11.42h-3.36v-1.38h8.33V131.62z"/>
	<path class="st1" d="M355.87,139.68h-4.32l-0.99,3.35h-1.65l4.12-12.8h1.38l4.13,12.8h-1.65L355.87,139.68z M351.97,138.3h3.49
		l-1.75-5.82L351.97,138.3z"/>
	<path class="st1" d="M367.83,136.25c0-0.51,0.16-0.93,0.49-1.26c0.32-0.33,0.76-0.49,1.3-0.49c0.53,0,0.97,0.16,1.3,0.48
		s0.5,0.75,0.5,1.3v0.33c0,0.51-0.16,0.93-0.48,1.25s-0.76,0.48-1.31,0.48c-0.54,0-0.98-0.16-1.3-0.49
		c-0.33-0.33-0.49-0.75-0.49-1.26V136.25z"/>
	<path class="st1" d="M389.79,141.44l-0.28,0.35c-0.81,0.94-1.99,1.42-3.55,1.42c-1.38,0-2.47-0.46-3.26-1.38
		c-0.79-0.92-1.19-2.21-1.21-3.89v-2.51c0-1.79,0.36-3.14,1.08-4.03c0.72-0.89,1.79-1.34,3.22-1.34c1.22,0,2.17,0.34,2.86,1.02
		c0.69,0.68,1.07,1.64,1.14,2.9h-1.61c-0.06-0.8-0.29-1.42-0.66-1.87c-0.38-0.45-0.95-0.67-1.72-0.67c-0.92,0-1.59,0.3-2.02,0.9
		s-0.65,1.56-0.67,2.88v2.61c0,1.29,0.25,2.28,0.74,2.97s1.2,1.03,2.12,1.03c0.87,0,1.53-0.21,1.98-0.63l0.24-0.22v-2.94h-2.34
		v-1.38h3.95V141.44z"/>
	<path class="st1" d="M402.54,137.76c0,1.75-0.37,3.09-1.12,4.03s-1.8,1.42-3.17,1.42c-1.32,0-2.36-0.46-3.12-1.38
		c-0.76-0.92-1.16-2.21-1.19-3.89v-2.41c0-1.71,0.38-3.05,1.13-4.02s1.81-1.46,3.16-1.46c1.35,0,2.4,0.46,3.15,1.39
		c0.75,0.93,1.14,2.25,1.16,3.98V137.76z M400.93,135.52c0-1.35-0.22-2.36-0.66-3.02c-0.44-0.66-1.12-0.99-2.04-0.99
		c-0.88,0-1.55,0.33-2.01,1c-0.46,0.67-0.68,1.65-0.69,2.95v2.29c0,1.31,0.23,2.3,0.68,2.99s1.13,1.03,2.04,1.03s1.57-0.32,2-0.95
		s0.66-1.6,0.68-2.91V135.52z"/>
	<path class="st1" d="M408.45,141.65h5.02v1.38h-6.64v-12.8h1.62V141.65z"/>
	<path class="st1" d="M417.18,143.03v-12.8h3.05c1.49,0,2.65,0.47,3.48,1.4s1.24,2.25,1.24,3.94v2.14c0,1.69-0.42,3-1.26,3.92
		c-0.84,0.92-2.05,1.38-3.65,1.38H417.18z M418.79,131.62v10.04h1.29c1.13,0,1.96-0.32,2.48-0.97c0.52-0.65,0.79-1.61,0.8-2.88
		v-2.27c0-1.35-0.26-2.34-0.78-2.97c-0.52-0.63-1.3-0.95-2.35-0.95H418.79z"/>
</g>
<g>
	<path class="st0" d="M225.15,116.59v-45h9v-9h9v-9h27v9h9v9h9v45h-18v-18h-27v18H225.15z M243.15,89.59h27v-18h-9v-9h-9v9h-9V89.59
		z"/>
	<path class="st0" d="M297.15,116.59v-63h54v9h9v18h-9v9h9v18h-9v9H297.15z M315.15,80.59h27v-18h-27V80.59z M315.15,107.59h27v-18
		h-27V107.59z"/>
	<path class="st0" d="M387.15,116.59v-9h-9v-9h-9v-27h9v-9h9v-9h45v9h-36v9h-9v27h9v9h18v-18h-9v-9h27v36H387.15z"/>
</g>
<g id="Layer_2">
</g>
</svg>
